<svg preserveAspectRatio="none" width="100%" height="100%" overflow="visible" style="display: block;" viewBox="0 0 300 300" fill="none" xmlns="http://www.w3.org/2000/svg">
<g id="Group 27195">
<path id="Ellipse 11" d="M253.004 259.042C235.279 275.786 213.739 287.956 190.25 294.499C166.761 301.042 142.031 301.76 118.202 296.591C94.373 291.422 72.1632 280.522 53.4962 264.835C34.8293 249.148 20.268 229.146 11.0734 206.563C1.87876 183.98 -1.6719 159.496 0.728898 135.231C3.12969 110.966 11.4096 87.6524 24.8514 67.3089C38.2932 46.9654 56.4918 30.2054 77.871 18.4804C99.2501 6.7555 123.165 0.419128 147.545 0.0200882L148.036 30.0161C128.532 30.3353 109.4 35.4044 92.2968 44.7843C75.1935 54.1643 60.6346 67.5723 49.8811 83.8471C39.1277 100.122 32.5038 118.773 30.5831 138.185C28.6625 157.596 31.503 177.184 38.8587 195.25C46.2144 213.317 57.8634 229.318 72.797 241.868C87.7306 254.418 105.498 263.138 124.562 267.273C143.625 271.408 163.409 270.833 182.2 265.599C200.991 260.365 218.223 250.629 232.403 237.234L253.004 259.042Z" fill="var(--fill-0, #F5F3FF)"/>
</g>
</svg>
