<svg width="174" height="36" viewBox="0 0 174 36" fill="none" xmlns="http://www.w3.org/2000/svg">
<g clip-path="url(#clip0_8195_6048)">
<path d="M164.744 6.55078H168.003V7.17073H166.757L166.771 11.2947H165.977L165.99 7.17073H164.744V6.55078ZM174.001 6.55078V11.2947H173.275L173.261 7.66938L171.645 11.2947H171.07L169.468 7.62895V11.2947H168.756V6.55078H169.728L171.372 10.3783L173.069 6.55078H174.001Z" fill="#050549"/>
<path d="M54.4419 5.55078C54.7321 5.55078 54.8772 5.6936 54.8772 5.97924V24.1876H64.9108C65.201 24.1876 65.3462 24.3304 65.3462 24.6161V26.9557C65.3462 27.2414 65.201 27.3842 64.9108 27.3842H51.574C51.2838 27.3842 51.1387 27.2414 51.1387 26.9557V5.97924C51.1387 5.6936 51.2838 5.55078 51.574 5.55078H54.4445H54.4419Z" fill="#190041"/>
<path d="M80.1928 13.0307C81.2667 14.2589 81.5569 15.9702 81.5859 19.1953V20.0523C81.5859 20.6236 81.3827 20.8235 80.5991 20.8235H71.4072C71.4362 22.3374 71.6974 23.3346 72.1617 23.8201C72.6551 24.3057 73.5838 24.5342 75.0032 24.5342H79.9607C80.2509 24.5342 80.396 24.6771 80.396 24.9627V26.7311C80.396 26.9882 80.2509 27.1596 79.9897 27.2167C78.5676 27.4166 76.858 27.5309 74.8001 27.5309C71.9876 27.5309 70.1328 27.0167 69.2332 25.9625C68.3335 24.9056 67.8691 22.7373 67.8691 19.5121C67.8691 16.287 68.3045 14.1187 69.2041 13.0618C70.1038 12.005 71.9876 11.4648 74.8001 11.4648C77.6125 11.4648 79.1507 11.8076 80.1928 13.0333V13.0307ZM72.101 15.2561C71.6657 15.7702 71.4335 16.796 71.4045 18.3384H78.0452C78.0162 16.7986 77.8131 15.7702 77.3777 15.2561C76.9424 14.7134 76.1008 14.4563 74.7974 14.4563C73.4941 14.4563 72.5364 14.7134 72.101 15.2561Z" fill="#190041"/>
<path d="M98.1687 16.1377V26.0702C98.1687 26.4987 97.9655 26.7557 97.5883 26.8986C96.1082 27.327 93.9342 27.527 91.0636 27.527C88.8316 27.527 87.2644 27.2128 86.3384 26.6129C85.4097 25.9845 84.9453 24.7017 84.9453 22.7594C84.9453 19.3057 86.655 18.2229 90.4542 18.2229H94.6597V16.7401C94.6597 15.1431 93.702 14.4576 91.3829 14.4576H86.6286C86.2803 14.4576 86.1933 14.3719 86.1933 14.0291V12.2893C86.1933 11.9465 86.2803 11.918 86.5996 11.8323C87.9636 11.5752 89.5571 11.4609 91.3829 11.4609C96.3403 11.4609 98.1687 12.9463 98.1687 16.1403V16.1377ZM94.6623 20.7053H90.66C89.0664 20.7053 88.4279 21.2195 88.4279 22.6165C88.4279 24.2135 89.1535 24.642 91.3565 24.642C92.7495 24.642 93.8497 24.5277 94.6623 24.3278V20.7027V20.7053Z" fill="#190041"/>
<path d="M110.896 11.7738C111.216 11.8595 111.361 12.0309 111.361 12.288V14.0278C111.361 14.342 111.187 14.4848 110.867 14.4563H108.229C106.461 14.4563 105.968 14.7419 105.968 15.9961V26.9544C105.968 27.24 105.823 27.3829 105.533 27.3829H102.894C102.604 27.3829 102.459 27.24 102.459 26.9544V15.1106C102.459 13.5137 103.068 12.4568 104.14 11.9998C105.213 11.5427 106.052 11.457 107.358 11.457C109.01 11.457 110.171 11.5713 110.896 11.7712V11.7738Z" fill="#190041"/>
<path d="M126.642 12.6282C127.803 13.5708 128.093 15.1678 128.093 18.2215V26.9544C128.093 27.24 127.948 27.3829 127.629 27.3829H125.02C124.73 27.3829 124.584 27.24 124.584 26.9544V18.85C124.584 16.6817 124.497 15.6534 123.888 15.0821C123.569 14.7679 123.249 14.5965 122.901 14.5394C122.553 14.4822 121.972 14.4537 121.192 14.4537H117.857V26.9544C117.857 27.24 117.712 27.3829 117.421 27.3829H114.754C114.493 27.3829 114.348 27.24 114.348 26.9544V12.3711C114.348 11.9998 114.493 11.9712 114.754 11.9141C116.289 11.5999 118.437 11.457 121.25 11.457C124.062 11.457 125.513 11.6284 126.642 12.6282Z" fill="#190041"/>
<path d="M147.289 6.63647C147.637 7.0078 148.014 7.89329 148.42 9.34747L153.436 27.0988C153.465 27.2988 153.407 27.3844 153.233 27.3844H152.043C151.956 27.3844 151.869 27.2988 151.811 27.1274L149.84 20.2486H140.416L138.445 27.1274C138.387 27.2988 138.3 27.3844 138.184 27.3844H136.994C136.82 27.3844 136.733 27.2988 136.762 27.0988L141.893 9.34747C142.299 7.91926 142.677 7.03637 143.025 6.66503C143.402 6.2937 144.099 6.09375 145.112 6.09375C146.215 6.09375 146.938 6.26514 147.286 6.63647H147.289ZM144.128 7.86213C143.954 8.11921 143.722 8.71906 143.431 9.71621L140.822 18.8204H149.434L146.882 9.71621C146.592 8.71646 146.36 8.09065 146.157 7.86213C145.983 7.60505 145.634 7.4908 145.112 7.4908C144.619 7.4908 144.299 7.60505 144.125 7.86213H144.128Z" fill="#190041"/>
<path d="M159.728 6.23438C159.931 6.23438 160.018 6.32007 160.018 6.49145V27.1252C160.018 27.2966 159.931 27.3822 159.728 27.3822H158.683C158.48 27.3822 158.393 27.2966 158.393 27.1252V6.49145C158.393 6.32007 158.48 6.23438 158.683 6.23438H159.728Z" fill="#190041"/>
<path d="M14.8512 6.34894L0.213706 16.8138C0.0316601 16.9437 -0.0448518 17.1748 0.0263834 17.3851L4.72 31.2128C4.76221 31.3374 4.84136 31.4439 4.94953 31.5218L10.6035 35.5649L5.20018 18.8133C5.16324 18.7016 5.20545 18.5796 5.30043 18.5095L9.27378 15.6557L18.5581 8.98983L14.8486 6.34375L14.8512 6.34894Z" fill="url(#paint0_linear_8195_6048)"/>
<path d="M29.7968 10.9819L15.1408 0.633855C15.0537 0.57413 14.9535 0.542969 14.8532 0.542969C14.753 0.542969 14.6501 0.57413 14.563 0.633855L2.55591 9.14857C2.4108 9.24985 2.30263 9.39786 2.24986 9.56405L0.0996094 16.2195L14.6897 5.78839C14.7873 5.71828 14.9192 5.71828 15.0142 5.78839L19.1959 8.76945L28.3325 15.2821L29.7942 10.9819H29.7968Z" fill="#190041"/>
<path d="M29.9197 26.4735L35.2623 9.45969C35.3204 9.27532 35.2518 9.07278 35.0935 8.95852L23.3476 0.500931C23.2288 0.415238 23.089 0.371094 22.9413 0.371094H15.7148L30.2864 10.6594C30.384 10.7295 30.4263 10.8541 30.3867 10.9684L25.1126 26.4761H29.9197V26.4735Z" fill="url(#paint1_linear_8195_6048)"/>
<path d="M14.669 0.294457C14.8827 0.24258 15.1149 0.281488 15.3022 0.41118L14.851 0.0947319H15.2916C15.0703 -0.00608402 14.8201 -0.0272015 14.5845 0.0350737C14.5634 0.131046 14.5951 0.229611 14.669 0.294457Z" fill="white"/>
<path d="M5.79102 18.8366L11.2075 35.6297C11.242 35.7379 11.3108 35.8324 11.4039 35.8992C11.497 35.9661 11.6094 36.0018 11.7247 36.001H26.6366C26.8028 36.001 26.9664 35.9465 27.0983 35.8504L32.6256 31.7839H14.8511C14.7935 31.7837 14.7374 31.7659 14.6905 31.7328C14.6437 31.6998 14.6085 31.6532 14.5899 31.5995L12.9409 26.8371L9.30001 16.3203L5.79102 18.8392V18.8366Z" fill="#190041"/>
<path d="M15.0493 31.2373H32.9109C33.1167 31.2373 33.2987 31.1074 33.362 30.9153L37.9343 16.924C37.9818 16.7812 37.9791 16.6306 37.9316 16.4904L35.6917 9.93359L30.386 26.828C30.349 26.9423 30.2435 27.0202 30.1221 27.0202H13.5876L15.0493 31.2399V31.2373Z" fill="url(#paint2_linear_8195_6048)"/>
</g>
<defs>
<linearGradient id="paint0_linear_8195_6048" x1="0" y1="20.9582" x2="18.5634" y2="20.9582" gradientUnits="userSpaceOnUse">
<stop stop-color="#F05B80"/>
<stop offset="0.12" stop-color="#EA5A83"/>
<stop offset="0.28" stop-color="#DA5A8D"/>
<stop offset="0.45" stop-color="#C05A9E"/>
<stop offset="0.64" stop-color="#9B59B6"/>
<stop offset="0.84" stop-color="#6D58D3"/>
<stop offset="1" stop-color="#4158F0"/>
</linearGradient>
<linearGradient id="paint1_linear_8195_6048" x1="15.7148" y1="13.4223" x2="35.2834" y2="13.4223" gradientUnits="userSpaceOnUse">
<stop stop-color="#F05B80"/>
<stop offset="0.23" stop-color="#C05A9E"/>
<stop offset="0.6" stop-color="#7C59CA"/>
<stop offset="0.86" stop-color="#5158E5"/>
<stop offset="1" stop-color="#4158F0"/>
</linearGradient>
<linearGradient id="paint2_linear_8195_6048" x1="13.5903" y1="20.5854" x2="37.9712" y2="20.5854" gradientUnits="userSpaceOnUse">
<stop stop-color="#F05B80"/>
<stop offset="0.42" stop-color="#A159B2"/>
<stop offset="0.81" stop-color="#5B58DE"/>
<stop offset="1" stop-color="#4158F0"/>
</linearGradient>
<clipPath id="clip0_8195_6048">
<rect width="174" height="36" fill="white"/>
</clipPath>
</defs>
</svg>
